<svg width="18" height="17" viewBox="0 0 18 17" xmlns="http://www.w3.org/2000/svg">
<path  clip-rule="evenodd" d="M16.3636 0.5C15.4555 0.15 14.4573 0 13.5 0C11.9045 0 10.1864 0.4 9 1.5C7.81364 0.4 6.09545 0 4.5 0C2.90455 0 1.18636 0.4 0 1.5V16.15C0 16.4 0.204545 16.65 0.409091 16.65C0.490909 16.65 0.531818 16.6 0.613636 16.6C1.71818 15.95 3.31364 15.5 4.5 15.5C6.09545 15.5 7.81364 15.9 9 17C10.1045 16.15 12.1091 15.5 13.5 15.5C14.85 15.5 16.2409 15.8 17.3864 16.55C17.4682 16.6 17.5091 16.6 17.5909 16.6C17.7955 16.6 18 16.35 18 16.1V1.5C17.5091 1.05 16.9773 0.75 16.3636 0.5ZM16.3614 13.998C15.4614 13.648 14.4796 13.498 13.4978 13.498C12.1069 13.498 10.1023 14.148 8.9978 14.998V3.49805C10.1023 2.64805 12.1069 1.99805 13.4978 1.99805C14.4796 1.99805 15.4614 2.14805 16.3614 2.49805V13.998Z"/>
</svg>
