<svg width="16" height="18" viewBox="0 0 16 18"  xmlns="http://www.w3.org/2000/svg">
<path  clip-rule="evenodd" d="M12.4444 1.8H13.3333C14.8036 1.8 16 3.0114 16 4.5V15.3C16 16.7886 14.8036 18 13.3333 18H2.66667C1.19644 18 0 16.7886 0 15.3V4.5C0 3.0114 1.19644 1.8 2.66667 1.8H3.55556V0.9C3.55556 0.405 3.95556 0 4.44444 0C4.93333 0 5.33333 0.405 5.33333 0.9V1.8H10.6667V0.9C10.6667 0.405 11.0667 0 11.5556 0C12.0444 0 12.4444 0.405 12.4444 0.9V1.8ZM1.77855 8.09961H14.223V4.49961C14.223 4.00371 13.8239 3.59961 13.3341 3.59961H12.4452V4.49961C12.4452 4.99461 12.0452 5.39961 11.5563 5.39961C11.0674 5.39961 10.6674 4.99461 10.6674 4.49961V3.59961H5.33411V4.49961C5.33411 4.99461 4.9341 5.39961 4.44522 5.39961C3.95633 5.39961 3.55633 4.99461 3.55633 4.49961V3.59961H2.66744C2.17766 3.59961 1.77855 4.00371 1.77855 4.49961V8.09961Z"/>
</svg>
