<svg width="18" height="18" viewBox="0 0 18 18"  xmlns="http://www.w3.org/2000/svg">
<path   d="M0 7.2V10.8L2.16 11.34C2.25 11.61 2.34 11.88 2.52 12.15L1.35 14.13L3.87 16.65L5.85 15.48C5.985 15.525 6.12 15.5925 6.255 15.66C6.39 15.7275 6.525 15.795 6.66 15.84L7.2 18H10.8L11.34 15.84C11.61 15.75 11.88 15.66 12.15 15.48L14.13 16.65L16.65 14.13L15.48 12.15C15.525 12.015 15.5925 11.88 15.66 11.745C15.7275 11.61 15.795 11.475 15.84 11.34L18 10.8V7.2L15.84 6.66C15.75 6.39 15.66 6.12 15.48 5.85L16.65 3.87L14.13 1.35L12.15 2.52C12.015 2.475 11.88 2.4075 11.745 2.34C11.61 2.2725 11.475 2.205 11.34 2.16L10.8 0H7.2L6.66 2.16C6.39 2.34 6.12 2.43 5.85 2.52L3.87 1.35L1.35 3.87L2.52 5.85C2.475 5.985 2.4075 6.12 2.34 6.255C2.2725 6.39 2.205 6.525 2.16 6.66L0 7.2ZM6.3 9C6.3 10.53 7.47 11.7 9 11.7C10.53 11.7 11.7 10.53 11.7 9C11.7 7.47 10.53 6.3 9 6.3C7.47 6.3 6.3 7.47 6.3 9Z" />
</svg>
